<?xml version="1.0" encoding="utf-8"?>
<!-- Generator: Adobe Illustrator 22.1.0, SVG Export Plug-In . SVG Version: 6.00 Build 0)  -->
<svg version="1.1" id="圖層_1" xmlns="http://www.w3.org/2000/svg" xmlns:xlink="http://www.w3.org/1999/xlink" x="0px" y="0px"
	 viewBox="0 0 13 95" style="enable-background:new 0 0 13 95;" xml:space="preserve">
<g>
	<g>
		<path d="M5.7,3.3c0,2.2,1.4,3.4,3.5,3.4c2.2,0,3.4-1.3,3.4-3.2V0.3H0.4v1.3h5.3V3.3z M6.8,1.7h4.7v1.6c0,1.4-0.9,2.1-2.3,2.1
			c-1.6,0-2.4-0.8-2.4-2.2V1.7z M12.6,12.1c0,0-12.2-3-12.2-3v1.3l3.9,0.9v3.2l-3.9,0.9v1.4l12.2-3V12.1z M11.4,13
			c-1,0.2-2.9,0.6-5.9,1.3v-2.6C8.1,12.3,10.3,12.8,11.4,13L11.4,13z M1.7,25.4c-0.6,0-1,0-1.3,0.1v1.1c0,0,6.7,0,6.7,0v-3.4H5.9
			v2.1H5.3c-2.6,0-3.9-0.4-3.9-2c0-1.7,2.1-2.2,5.1-2.2c3.1,0,5.1,0.6,5.1,2.3c0,1.7-1.7,1.8-2.2,1.9v1.3c0.7,0,3.3-0.2,3.3-3.2
			c0-2.5-2.1-3.8-6.3-3.8c-3.6,0-6.3,0.7-6.3,3.3C0.2,24.4,0.9,25,1.7,25.4z M12.6,30.5H0.4v5.7l1.2,0.2v-4.5h4.7v4.1h1.2v-4.1h4
			v4.3h1.2V30.5z M12.6,50.5v-6.8h-1.2v2.7h-11v1.3h11v2.7H12.6z M6.6,53c-4.2,0-6.4,1-6.4,3.6c0,2.6,2.2,3.6,6.4,3.6
			c4.1,0,6.2-1,6.2-3.6C12.8,54.3,10.8,53,6.6,53z M6.6,58.9c-3.5,0-5.2-0.6-5.2-2.2c0-1.5,1.8-2.2,5.2-2.2c3.3,0,5,0.7,5,2.2
			C11.6,58.2,10.2,58.9,6.6,58.9z M12.6,74.8V68h-1.2v2.7h-11v1.3h11v2.7H12.6z M6.6,77.3c-4.2,0-6.4,1-6.4,3.6
			c0,2.6,2.2,3.6,6.4,3.6c4.1,0,6.2-1,6.2-3.6C12.8,78.5,10.8,77.3,6.6,77.3z M6.6,83.1c-3.5,0-5.2-0.6-5.2-2.2
			c0-1.5,1.8-2.2,5.2-2.2c3.3,0,5,0.7,5,2.2C11.6,82.4,10.2,83.1,6.6,83.1z M0.4,89.6h5.3v1.6c0,2.2,1.4,3.4,3.5,3.4
			c2.2,0,3.4-1.3,3.4-3.2v-3.2H0.4V89.6z M6.8,89.6h4.7v1.6c0,1.4-0.9,2.1-2.3,2.1c-1.6,0-2.4-0.8-2.4-2.2V89.6z"/>
	</g>
</g>
</svg>
