<?xml version="1.0" encoding="utf-8"?>
<!-- Generator: Adobe Illustrator 22.1.0, SVG Export Plug-In . SVG Version: 6.00 Build 0)  -->
<svg version="1.1" id="圖層_1" xmlns="http://www.w3.org/2000/svg" xmlns:xlink="http://www.w3.org/1999/xlink" x="0px" y="0px"
	 viewBox="0 0 13 27" style="enable-background:new 0 0 13 27;" xml:space="preserve">
<g>
	<g>
		<path d="M11.4,7h1.2V0.2h-1.2v2.7h-11v1.3h11V7z M6.6,16.7c4.1,0,6.2-1,6.2-3.6c0-2.4-2-3.6-6.2-3.6c-4.2,0-6.4,1-6.4,3.6
			C0.2,15.7,2.4,16.7,6.6,16.7z M6.6,10.9c3.3,0,5,0.7,5,2.2c0,1.5-1.5,2.2-5,2.2c-3.5,0-5.2-0.6-5.2-2.2
			C1.4,11.6,3.1,10.9,6.6,10.9z M0.4,21.8h5.3v1.6c0,2.2,1.4,3.4,3.5,3.4c2.2,0,3.4-1.3,3.4-3.2v-3.2H0.4V21.8z M6.8,21.8h4.7v1.6
			c0,1.4-0.9,2.1-2.3,2.1c-1.6,0-2.4-0.8-2.4-2.2V21.8z"/>
	</g>
</g>
</svg>
