<?xml version="1.0" encoding="utf-8"?>
<!-- Generator: Adobe Illustrator 24.0.3, SVG Export Plug-In . SVG Version: 6.00 Build 0)  -->
<svg version="1.1" id="圖層_1" xmlns="http://www.w3.org/2000/svg" xmlns:xlink="http://www.w3.org/1999/xlink" x="0px" y="0px"
	 viewBox="0 0 30 30" style="enable-background:new 0 0 30 30;" xml:space="preserve">
<style type="text/css">
	.st0{fill-rule:evenodd;clip-rule:evenodd;fill:#FFFFFF;}
</style>
<path id="icon_line.svg" class="st0" d="M28.3,12.5C28,6.9,22.2,2.4,15,2.4C7.6,2.4,1.7,7.1,1.7,13c0,5.4,5.1,9.8,11.6,10.5
	c0.4,0,0.7,0.4,0.6,0.8l-0.3,2.5c0,0.4,0.2,0.8,0.6,0.8c0.1,0,0.3,0,0.4-0.1c5.5-2.7,8.8-5.4,10.8-7.8c0.4-0.4,1.5-2.1,1.8-2.5
	c0.5-0.9,0.8-1.9,1-2.9c0.1-0.3,0.1-0.5,0.1-0.8C28.4,13.2,28.3,12.7,28.3,12.5z M9.7,16.5H7c-0.4,0-0.7-0.3-0.7-0.7v-5.1
	C6.3,10.3,6.6,10,7,10c0.4,0,0.7,0.3,0.7,0.7v4.5h2.1c0.4,0,0.7,0.3,0.6,0.7C10.3,16.2,10.1,16.5,9.7,16.5L9.7,16.5z M12.4,16
	c0,0.3-0.2,0.5-0.5,0.5h-0.3c-0.3,0-0.5-0.2-0.5-0.5c0,0,0,0,0,0v-5.4c0-0.3,0.2-0.5,0.5-0.5c0,0,0,0,0,0h0.3c0.3,0,0.5,0.2,0.5,0.5
	V16L12.4,16z M18.8,15.8c0,0.4-0.3,0.7-0.7,0.7c-0.2,0-0.3-0.1-0.5-0.2c-0.1,0-2.8-3.6-2.8-3.6v3.1c0,0.4-0.3,0.7-0.7,0.7
	c-0.4,0-0.7-0.3-0.7-0.7v-5.1c0-0.4,0.3-0.7,0.7-0.7c0.2,0,0.4,0.1,0.5,0.2c0.1,0,2.8,3.6,2.8,3.6v-3.1c0-0.4,0.3-0.7,0.7-0.7
	c0.4,0,0.7,0.3,0.7,0.7L18.8,15.8L18.8,15.8z M23.2,12.6c0.4,0,0.7,0.3,0.7,0.7c0,0.4-0.3,0.7-0.7,0.7h-2.1v1.2h2.1
	c0.4,0,0.7,0.3,0.7,0.7c0,0.4-0.3,0.7-0.7,0.7h-2.7c-0.4,0-0.7-0.3-0.7-0.7c0,0,0,0,0,0v-5.1c0-0.4,0.3-0.7,0.7-0.7c0,0,0,0,0,0h2.7
	c0.4,0,0.7,0.3,0.7,0.7c0,0.4-0.3,0.6-0.7,0.7h-2.1v1.2L23.2,12.6L23.2,12.6z"/>
</svg>
