<?xml version="1.0" encoding="utf-8"?>
<!-- Generator: Adobe Illustrator 24.0.3, SVG Export Plug-In . SVG Version: 6.00 Build 0)  -->
<svg version="1.1" id="圖層_1" xmlns="http://www.w3.org/2000/svg" xmlns:xlink="http://www.w3.org/1999/xlink" x="0px" y="0px"
	 viewBox="0 0 30 30" style="enable-background:new 0 0 30 30;" xml:space="preserve">
<style type="text/css">
	.st0{fill-rule:evenodd;clip-rule:evenodd;fill:#FFFFFF;}
</style>
<path id="icon_ig.svg" class="st0" d="M21,10.4c-0.8,0-1.4-0.6-1.4-1.4c0-0.8,0.6-1.4,1.4-1.4c0.8,0,1.4,0.6,1.4,1.4c0,0,0,0,0,0
	C22.4,9.7,21.8,10.4,21,10.4L21,10.4z M21,10.4c-0.8,0-1.4-0.6-1.4-1.4c0-0.8,0.6-1.4,1.4-1.4c0.8,0,1.4,0.6,1.4,1.4c0,0,0,0,0,0
	C22.4,9.7,21.8,10.4,21,10.4L21,10.4z M21,10.4c-0.8,0-1.4-0.6-1.4-1.4c0-0.8,0.6-1.4,1.4-1.4c0.8,0,1.4,0.6,1.4,1.4c0,0,0,0,0,0
	C22.4,9.7,21.8,10.4,21,10.4L21,10.4z M21,10.4c-0.8,0-1.4-0.6-1.4-1.4c0-0.8,0.6-1.4,1.4-1.4c0.8,0,1.4,0.6,1.4,1.4c0,0,0,0,0,0
	C22.4,9.7,21.8,10.4,21,10.4L21,10.4z M20.6,3.6H9.4c-3.2,0-5.7,2.6-5.7,5.7v11.3c0,3.2,2.6,5.7,5.7,5.7h11.3c3.2,0,5.7-2.6,5.7-5.7
	V9.4C26.4,6.2,23.8,3.6,20.6,3.6L20.6,3.6z M23.9,20.6c0,1.8-1.5,3.3-3.3,3.3H9.4c-1.8,0-3.2-1.5-3.2-3.3V9.4c0-1.8,1.5-3.3,3.2-3.3
	h11.3c1.8,0,3.3,1.5,3.3,3.3V20.6L23.9,20.6z M21,10.4c-0.8,0-1.4-0.6-1.4-1.4c0-0.8,0.6-1.4,1.4-1.4c0.8,0,1.4,0.6,1.4,1.4
	c0,0,0,0,0,0C22.4,9.7,21.8,10.4,21,10.4L21,10.4z M15,9.1c-3.2,0-5.8,2.6-5.8,5.8c0,3.2,2.6,5.9,5.8,5.9c3.2,0,5.8-2.6,5.8-5.8
	c0,0,0,0,0,0C20.8,11.8,18.2,9.2,15,9.1L15,9.1z M15,18.4c-1.9,0-3.4-1.5-3.4-3.4s1.5-3.4,3.4-3.4c1.9,0,3.4,1.5,3.4,3.4
	C18.4,16.9,16.9,18.4,15,18.4L15,18.4z"/>
</svg>
