<?xml version="1.0" encoding="utf-8"?>
<!-- Generator: Adobe Illustrator 22.1.0, SVG Export Plug-In . SVG Version: 6.00 Build 0)  -->
<svg version="1.1" id="圖層_1" xmlns="http://www.w3.org/2000/svg" xmlns:xlink="http://www.w3.org/1999/xlink" x="0px" y="0px"
	 viewBox="0 0 151 50" style="enable-background:new 0 0 151 50;" xml:space="preserve">
<style type="text/css">
	.st0{fill:#9E7D3E;}
</style>
<g>
	<g>
		<path class="st0" d="M22.6,19.3c0,7.9,0.1,15.2,0.4,21.8H23c-0.6-2.1-2.5-6.7-16-40.4H0.4v48.7h5v-19c0-8.8,0-16.7-0.4-22.8h0.1
			c0.6,1.9,2.3,6.4,16.3,41.8h6.3V0.6h-5V19.3z M46.1,26h16.2v-4.7H46.1V5.4h17.1V0.6H40.8v48.7h22.6l0.7-4.7h-18V26z M104.5,41.7
			h-0.1c-0.8-6.4-5.8-29.9-8-41.1h-5.1c-2.3,11.6-7.4,34.5-8.2,41.3h-0.1c-0.6-6.7-3.7-24-7-41.3h-5.7l9.6,48.7h5.6
			c2.3-10.9,7-32.5,8.1-40.3h0.1c1,7.3,5.6,29.2,7.8,40.3h5.7l10.4-48.7h-5.4C110.1,11.7,105.5,33.2,104.5,41.7z M139,21.3
			c-6.1-2.9-8.2-5.1-8.2-9.8c0-3.9,2-7.1,6.7-7.1c6,0,6.8,5.6,7,8h5.3C149.6,6.7,147,0,137.6,0c-7.9,0-12.2,5.3-12.2,12
			c0,7.1,3.4,10.4,11,14.1c6.6,3.2,8.7,5.9,8.7,11c0,5.6-2.6,8.4-7.7,8.4c-5.3,0-7.7-4-8.1-9h-5.4c0.4,7.1,3.6,13.5,13.3,13.5
			c9,0,13.3-5.6,13.3-13.3C150.6,29.4,147.5,25.4,139,21.3z"/>
	</g>
</g>
</svg>
