<?xml version="1.0" encoding="utf-8"?>
<!-- Generator: Adobe Illustrator 22.1.0, SVG Export Plug-In . SVG Version: 6.00 Build 0)  -->
<svg version="1.1" id="圖層_1" xmlns="http://www.w3.org/2000/svg" xmlns:xlink="http://www.w3.org/1999/xlink" x="0px" y="0px"
	 viewBox="0 0 328 50" style="enable-background:new 0 0 328 50;" xml:space="preserve">
<style type="text/css">
	.st0{fill:#9E7D3E;}
</style>
<g>
	<g>
		<path class="st0" d="M14.2,45.3c-7.3,0-8.5-10.4-8.5-20.6c0-9.4,1.2-19.9,8.8-19.9c6.8,0,7.1,7.5,7.2,9.2h5.4C27,11,26.3,0,14.6,0
			C3.9,0,0.2,10.5,0.2,24.6c0,11.7,1,25.3,13.9,25.3c11.8,0,13-11.3,13.2-14.2h-5.4C21.6,38.3,20.7,45.3,14.2,45.3z M50.2,0
			c-9.5,0-14.4,8.1-14.4,24.6c0,16.8,4.1,25.3,14.1,25.3c10.5,0,14.4-8.9,14.4-25.4C64.4,8.1,60.2,0,50.2,0z M50.1,45.3
			c-6,0-8.8-7-8.8-20.8c0-13.2,2.8-19.9,8.8-19.9c6,0,8.8,5.8,8.8,19.9C58.9,38.6,56.3,45.3,50.1,45.3z M97.9,19.3
			c0,7.9,0.1,15.2,0.4,21.7h-0.1c-0.6-2.1-2.5-6.7-15.9-40.3h-6.6v48.5h5V30.3c0-8.7,0-16.7-0.4-22.8h0.1c0.6,1.9,2.3,6.4,16.2,41.7
			h6.3V0.7h-5V19.3z M111.1,5.5h10.8v43.8h5.3V5.5h10.8V0.7h-27V5.5z M154,0.7c0,0-11.7,48.5-11.7,48.5h5.3l3.5-15.4h12.6l3.6,15.4
			h5.7L160.9,0.7H154z M152.2,29.1c2.4-10.4,4.4-19.2,5-23.4h0.2c0.6,3.9,2.5,11.5,5.3,23.4H152.2z M194.2,45.3
			c-7.3,0-8.5-10.4-8.5-20.6c0-9.4,1.2-19.9,8.8-19.9c6.8,0,7.1,7.5,7.2,9.2h5.4C207,11,206.4,0,194.7,0
			c-10.8,0-14.5,10.5-14.5,24.6c0,11.7,1,25.3,13.9,25.3c11.8,0,13-11.3,13.2-14.2h-5.4C201.7,38.3,200.7,45.3,194.2,45.3z
			 M212.8,5.5h10.8v43.8h5.3V5.5h10.8V0.7h-27V5.5z M286.2,34.7c0,6.2-1.6,10.6-8,10.6c-6.4,0-8-5.3-8-10.6V0.7h-5.4v34.4
			c0,8.9,3.3,14.9,13.2,14.9c10.3,0,13.5-6.3,13.5-15.2V0.7h-5.3V34.7z M316.3,21.3c-6.1-2.9-8.2-5.1-8.2-9.7c0-3.9,2-7.1,6.7-7.1
			c6,0,6.7,5.6,7,8h5.2c-0.1-5.7-2.7-12.4-12-12.4c-7.9,0-12.2,5.3-12.2,12c0,7,3.4,10.4,11,14c6.6,3.2,8.7,5.9,8.7,11
			c0,5.6-2.6,8.4-7.6,8.4c-5.3,0-7.7-4-8.1-9h-5.3c0.4,7.1,3.6,13.4,13.3,13.4c8.9,0,13.3-5.6,13.3-13.3
			C327.8,29.4,324.7,25.4,316.3,21.3z"/>
	</g>
</g>
</svg>
