<?xml version="1.0" encoding="utf-8"?>
<!-- Generator: Adobe Illustrator 24.0.3, SVG Export Plug-In . SVG Version: 6.00 Build 0)  -->
<svg version="1.1" id="圖層_1" xmlns="http://www.w3.org/2000/svg" xmlns:xlink="http://www.w3.org/1999/xlink" x="0px" y="0px"
	 viewBox="0 0 358 50" style="enable-background:new 0 0 358 50;" xml:space="preserve">
<style type="text/css">
	.st0{fill:#9E7D3E;}
</style>
<g>
	<g>
		<path class="st0" d="M5.6,26h16.2v-4.7H5.6V5.5h17V0.7H0.3v48.6h22.6l0.7-4.7h-18V26z M55.4,19.3c0,7.9,0.1,15.2,0.4,21.7h-0.1
			c-0.6-2.1-2.5-6.7-15.9-40.3h-6.6v48.6h5V30.3c0-8.7,0-16.7-0.4-22.8h0.1c0.6,1.9,2.3,6.4,16.2,41.7h6.3V0.7h-5V19.3z M86.6,4.7
			c6.8,0,7.2,6.9,7.4,8.6h5.3C99.2,10.3,98.4,0,86.8,0c-9.9,0-15,8.3-15,25c0,14.1,2.8,25,13.3,25c5.7,0,8.1-2.6,9.7-6
			c0,2.4,0.2,3.9,0.3,5.2h4.2c0,0,0-26.6,0-26.6H85.6v4.7H94v2.4c0,10.2-1.5,15.7-8,15.7c-6.8,0-8.7-8.3-8.7-20.4
			C77.3,12.7,79.8,4.7,86.6,4.7z M111.4,49.3h5.3V0.7h-5.3V49.3z M152.1,19.3c0,7.9,0.1,15.2,0.4,21.7h-0.1
			c-0.6-2.1-2.5-6.7-15.9-40.3H130v48.6h5V30.3c0-8.7,0-16.7-0.4-22.8h0.1c0.6,1.9,2.3,6.4,16.2,41.7h6.3V0.7h-5V19.3z M175.6,26
			h16.2v-4.7h-16.2V5.5h17V0.7h-22.3v48.6h22.6l0.7-4.7h-18V26z M208.6,26h16.2v-4.7h-16.2V5.5h17V0.7h-22.3v48.6h22.6l0.7-4.7h-18
			V26z M260.8,37c0-6.8-1.4-10.8-5.9-12.4c2.9-1,6.5-4.1,6.5-11.4c0-7.9-4.3-12.5-12.4-12.5h-12.7v48.6h5.3V26.9h5.9
			c6.6,0,8,3.3,8,10.2v1.6c0,3.9,0.1,8.3,0.7,10.5h5.3c-0.5-2.6-0.7-5.8-0.7-10.4V37z M247.8,22.4h-6.2V5.2h6.7
			c5.4,0,7.6,3.3,7.6,8.2C255.9,19,253.7,22.4,247.8,22.4z M272.7,49.3h5.3V0.7h-5.3V49.3z M313.4,19.3c0,7.9,0.1,15.2,0.4,21.7
			h-0.1c-0.6-2.1-2.5-6.7-15.9-40.3h-6.6v48.6h5V30.3c0-8.7,0-16.7-0.4-22.8h0.1c0.6,1.9,2.3,6.4,16.2,41.7h6.3V0.7h-5V19.3z
			 M343.6,27.3h8.4v2.4c0,10.2-1.5,15.7-8,15.7c-6.8,0-8.7-8.3-8.7-20.4c0-12.2,2.4-20.3,9.3-20.3c6.8,0,7.2,6.9,7.4,8.6h5.3
			C357.2,10.3,356.4,0,344.8,0c-9.9,0-15,8.3-15,25c0,14.1,2.8,25,13.3,25c5.7,0,8.1-2.6,9.7-6c0,2.4,0.2,3.9,0.3,5.2h4.2
			c0,0,0-26.6,0-26.6h-13.7V27.3z"/>
	</g>
</g>
</svg>
