<?xml version="1.0" encoding="utf-8"?>
<!-- Generator: Adobe Illustrator 22.1.0, SVG Export Plug-In . SVG Version: 6.00 Build 0)  -->
<svg version="1.1" id="圖層_1" xmlns="http://www.w3.org/2000/svg" xmlns:xlink="http://www.w3.org/1999/xlink" x="0px" y="0px"
	 viewBox="0 0 499 50" style="enable-background:new 0 0 499 50;" xml:space="preserve">
<style type="text/css">
	.st0{fill:#9E7D3E;}
</style>
<g>
	<g>
		<path class="st0" d="M14.1,45.3c-7.3,0-8.5-10.4-8.5-20.6c0-9.5,1.2-19.9,8.8-19.9c6.8,0,7.1,7.5,7.2,9.2H27
			C26.9,11,26.2,0,14.5,0C3.7,0,0,10.5,0,24.6C0,36.3,1,50,13.9,50c11.8,0,13-11.3,13.2-14.2h-5.4C21.5,38.3,20.6,45.3,14.1,45.3z
			 M42.9,0.7h-5.3v48.6h21.9l0.8-4.7H42.9V0.7z M76.1,0.7c0,0-11.7,48.6-11.7,48.6h5.3l3.5-15.4h12.6l3.6,15.4h5.7L83,0.7H76.1z
			 M74.3,29.1c2.4-10.4,4.4-19.2,5-23.4h0.2c0.6,3.9,2.5,11.5,5.3,23.4H74.3z M116.2,21.3c-6.1-2.9-8.2-5.1-8.2-9.7
			c0-3.9,2-7.1,6.7-7.1c6,0,6.8,5.6,7,8h5.3C126.8,6.8,124.2,0,114.9,0c-7.9,0-12.2,5.3-12.2,12c0,7,3.4,10.4,11,14
			c6.6,3.2,8.7,5.9,8.7,11c0,5.6-2.6,8.4-7.7,8.4c-5.3,0-7.7-4-8.1-9h-5.4c0.4,7.1,3.6,13.4,13.3,13.4c8.9,0,13.3-5.6,13.3-13.3
			C127.8,29.4,124.7,25.4,116.2,21.3z M150.5,21.3c-6.1-2.9-8.2-5.1-8.2-9.7c0-3.9,2-7.1,6.7-7.1c6,0,6.8,5.6,7,8h5.3
			C161.1,6.8,158.6,0,149.2,0c-7.9,0-12.2,5.3-12.2,12c0,7,3.4,10.4,11,14c6.6,3.2,8.7,5.9,8.7,11c0,5.6-2.6,8.4-7.7,8.4
			c-5.3,0-7.7-4-8.1-9h-5.4c0.4,7.1,3.6,13.4,13.3,13.4c8.9,0,13.3-5.6,13.3-13.3C162.1,29.4,159,25.4,150.5,21.3z M172.9,49.3h5.3
			V0.7h-5.3V49.3z M203.6,45.3c-7.3,0-8.5-10.4-8.5-20.6c0-9.5,1.2-19.9,8.8-19.9c6.8,0,7.1,7.5,7.2,9.2h5.4
			C216.5,11,215.8,0,204.1,0c-10.8,0-14.5,10.5-14.5,24.6c0,11.7,1,25.4,13.9,25.4c11.8,0,13-11.3,13.2-14.2h-5.4
			C211.1,38.3,210.1,45.3,203.6,45.3z M256.9,0.7h-12.5v48.6h5.3v-21h6.4c8.9,0,13.7-5.4,13.7-14.1C269.8,5.5,264.5,0.7,256.9,0.7z
			 M255.6,23.8h-5.8V5.2h6.5c5.4,0,8.2,3.6,8.2,8.9C264.4,20.7,261.4,23.8,255.6,23.8z M304.6,37c0-6.8-1.4-10.8-5.9-12.4
			c2.9-1,6.5-4.1,6.5-11.4c0-7.9-4.3-12.5-12.4-12.5h-12.7v48.6h5.3V26.9h5.9c6.6,0,8,3.3,8,10.2v1.6c0,3.9,0.1,8.3,0.7,10.5h5.3
			c-0.5-2.6-0.7-5.8-0.7-10.4V37z M291.6,22.4h-6.2V5.2h6.7c5.4,0,7.6,3.3,7.6,8.2C299.7,19,297.5,22.4,291.6,22.4z M329.1,0
			c-9.5,0-14.4,8.1-14.4,24.6c0,16.8,4.1,25.4,14.1,25.4c10.5,0,14.5-8.9,14.5-25.4C343.3,8.1,339.1,0,329.1,0z M329,45.4
			c-6,0-8.8-7-8.8-20.8c0-13.2,2.8-19.9,8.8-19.9c6,0,8.8,5.8,8.8,20C337.8,38.6,335.2,45.4,329,45.4z M358.2,38.1
			c0,4.7-0.7,7.1-4.8,7.1c-1.2,0-2.3-0.1-3.1-0.2v4.6c0.9,0.2,2.4,0.3,3.8,0.3c8.4,0,9.4-5.7,9.4-12.3V0.7h-5.3V38.1z M381.6,26
			h16.2v-4.7h-16.2V5.5h17V0.7h-22.3v48.6h22.6l0.7-4.7h-18V26z M421.5,45.3c-7.3,0-8.5-10.4-8.5-20.6c0-9.5,1.2-19.9,8.8-19.9
			c6.8,0,7.1,7.5,7.2,9.2h5.4C434.4,11,433.7,0,422,0c-10.8,0-14.5,10.5-14.5,24.6c0,11.7,1,25.4,13.9,25.4
			c11.8,0,13-11.3,13.2-14.2h-5.4C429,38.3,428,45.3,421.5,45.3z M440.1,5.5h10.8v43.8h5.3V5.5h10.8V0.7h-27V5.5z M487.4,21.3
			c-6.1-2.9-8.2-5.1-8.2-9.7c0-3.9,2-7.1,6.7-7.1c6,0,6.8,5.6,7,8h5.3C498,6.8,495.4,0,486.1,0c-7.9,0-12.2,5.3-12.2,12
			c0,7,3.4,10.4,11,14c6.6,3.2,8.7,5.9,8.7,11c0,5.6-2.6,8.4-7.7,8.4c-5.3,0-7.7-4-8.1-9h-5.4c0.4,7.1,3.6,13.4,13.3,13.4
			c8.9,0,13.3-5.6,13.3-13.3C499,29.4,495.9,25.4,487.4,21.3z"/>
	</g>
</g>
</svg>
