<?xml version="1.0" encoding="utf-8"?>
<!-- Generator: Adobe Illustrator 22.1.0, SVG Export Plug-In . SVG Version: 6.00 Build 0)  -->
<svg version="1.1" id="圖層_1" xmlns="http://www.w3.org/2000/svg" xmlns:xlink="http://www.w3.org/1999/xlink" x="0px" y="0px"
	 viewBox="0 0 421 50" style="enable-background:new 0 0 421 50;" xml:space="preserve">
<style type="text/css">
	.st0{fill:#9E7D3E;}
</style>
<g>
	<g>
		<path class="st0" d="M14.4,45.3c-7.3,0-8.5-10.4-8.5-20.6c0-9.4,1.2-19.9,8.8-19.9c6.8,0,7.1,7.5,7.2,9.2h5.4
			C27.2,11,26.5,0,14.8,0C4,0,0.3,10.5,0.3,24.6c0,11.7,1,25.3,13.9,25.3c11.8,0,13-11.3,13.2-14.2H22
			C21.8,38.3,20.8,45.3,14.4,45.3z M45.4,0.7c0,0-11.7,48.5-11.7,48.5H39l3.5-15.4h12.6l3.6,15.4h5.7L52.3,0.7H45.4z M43.6,29.1
			C46,18.7,48,9.9,48.6,5.7h0.2c0.6,3.9,2.5,11.5,5.3,23.4H43.6z M85.5,21.3c-6.1-2.9-8.2-5.1-8.2-9.7c0-3.9,2-7.1,6.7-7.1
			c6,0,6.7,5.6,7,8h5.2C96.1,6.8,93.5,0,84.2,0C76.2,0,72,5.4,72,12c0,7,3.4,10.4,11,14c6.6,3.2,8.7,5.9,8.7,11
			c0,5.6-2.6,8.4-7.6,8.4c-5.3,0-7.7-4-8.1-9h-5.3c0.4,7.1,3.6,13.4,13.3,13.4c8.9,0,13.3-5.6,13.3-13.3
			C97.1,29.4,94,25.4,85.5,21.3z M113.1,25.9h16.2v-4.7h-16.2V5.5h17V0.7h-22.3v48.5h22.5l0.7-4.7h-18V25.9z M158,49.2h5.3V26.3h16
			v-4.7h-16V5.5h17V0.7H158V49.2z M195,25.9h16.2v-4.7H195V5.5h17V0.7h-22.3v48.5h22.5l0.7-4.7h-18V25.9z M230.3,0.7
			c0,0-11.7,48.5-11.7,48.5h5.3l3.5-15.4h12.6l3.6,15.4h5.7L237.2,0.7H230.3z M228.5,29.1c2.4-10.4,4.4-19.2,5-23.4h0.2
			c0.6,3.9,2.5,11.5,5.3,23.4H228.5z M253.5,5.5h10.8v43.8h5.3V5.5h10.8V0.7h-27V5.5z M309.6,34.7c0,6.2-1.6,10.6-8,10.6
			c-6.4,0-8-5.3-8-10.6V0.7h-5.4v34.4c0,8.9,3.3,14.9,13.2,14.9c10.3,0,13.5-6.3,13.5-15.2V0.7h-5.3V34.7z M352.2,37
			c0-6.8-1.4-10.8-5.9-12.4c2.9-1,6.5-4.1,6.5-11.3c0-7.9-4.3-12.5-12.4-12.5h-12.7v48.5h5.3V26.9h5.9c6.6,0,8,3.3,8,10.2v1.6
			c0,3.9,0.1,8.3,0.7,10.5h5.3c-0.5-2.6-0.7-5.8-0.7-10.4V37z M339.2,22.4H333V5.2h6.7c5.4,0,7.6,3.3,7.6,8.2
			C347.4,19,345.1,22.4,339.2,22.4z M369.4,25.9h16.2v-4.7h-16.2V5.5h17V0.7h-22.3v48.5h22.5l0.7-4.7h-18V25.9z M409.1,21.3
			c-6.1-2.9-8.2-5.1-8.2-9.7c0-3.9,2-7.1,6.7-7.1c6,0,6.7,5.6,7,8h5.2c-0.1-5.7-2.7-12.4-12-12.4c-7.9,0-12.2,5.3-12.2,12
			c0,7,3.4,10.4,11,14c6.6,3.2,8.7,5.9,8.7,11c0,5.6-2.6,8.4-7.6,8.4c-5.3,0-7.7-4-8.1-9h-5.3c0.4,7.1,3.6,13.4,13.3,13.4
			c8.9,0,13.3-5.6,13.3-13.3C420.7,29.4,417.6,25.4,409.1,21.3z"/>
	</g>
</g>
</svg>
