<?xml version="1.0" encoding="utf-8"?>
<!-- Generator: Adobe Illustrator 22.1.0, SVG Export Plug-In . SVG Version: 6.00 Build 0)  -->
<svg version="1.1" id="圖層_1" xmlns="http://www.w3.org/2000/svg" xmlns:xlink="http://www.w3.org/1999/xlink" x="0px" y="0px"
	 viewBox="0 0 564 50" style="enable-background:new 0 0 564 50;" xml:space="preserve">
<style type="text/css">
	.st0{fill:#9E7D3E;}
</style>
<g>
	<g>
		<path class="st0" d="M25,37c0-6.8-1.4-10.8-5.9-12.4c2.9-1,6.5-4.1,6.5-11.3c0-7.9-4.3-12.5-12.4-12.5H0.5v48.5h5.3V26.9h5.9
			c6.6,0,8,3.3,8,10.2v1.6c0,3.9,0.1,8.3,0.7,10.5h5.3c-0.5-2.6-0.7-5.8-0.7-10.4V37z M12,22.4H5.8V5.2h6.7c5.4,0,7.6,3.3,7.6,8.2
			C20.1,19,17.9,22.4,12,22.4z M42.2,25.9h16.2v-4.7H42.2V5.5h17V0.7H36.9v48.5h22.5l0.7-4.7h-18V25.9z M81.9,21.3
			c-6.1-2.9-8.2-5.1-8.2-9.7c0-3.9,2-7.1,6.7-7.1c6,0,6.7,5.6,7,8h5.2C92.5,6.8,89.9,0,80.5,0c-7.9,0-12.2,5.3-12.2,12
			c0,7,3.4,10.4,11,14c6.6,3.2,8.7,5.9,8.7,11c0,5.6-2.6,8.4-7.6,8.4c-5.3,0-7.7-4-8.1-9h-5.3c0.4,7.1,3.6,13.4,13.3,13.4
			c8.9,0,13.3-5.6,13.3-13.3C93.5,29.4,90.4,25.4,81.9,21.3z M109.5,25.9h16.2v-4.7h-16.2V5.5h17V0.7h-22.3v48.5h22.5l0.7-4.7h-18
			V25.9z M161.6,37c0-6.8-1.4-10.8-5.9-12.4c2.9-1,6.5-4.1,6.5-11.3c0-7.9-4.3-12.5-12.4-12.5h-12.7v48.5h5.3V26.9h5.9
			c6.6,0,8,3.3,8,10.2v1.6c0,3.9,0.1,8.3,0.7,10.5h5.3c-0.5-2.6-0.7-5.8-0.7-10.4V37z M148.7,22.4h-6.2V5.2h6.7
			c5.4,0,7.6,3.3,7.6,8.2C156.8,19,154.6,22.4,148.7,22.4z M189.2,23.8c-1.7,6.8-4,15.7-4.6,19.9h-0.1c-0.6-4.6-2.5-13.1-4.1-19.9
			l-5.4-23h-5.7l12,48.5h6.4l12.5-48.5h-5.5L189.2,23.8z M216.7,0.7c0,0-11.7,48.5-11.7,48.5h5.3l3.5-15.4h12.6l3.6,15.4h5.7
			L223.6,0.7H216.7z M214.9,29.1c2.4-10.4,4.4-19.2,5-23.4h0.2c0.6,3.9,2.5,11.5,5.3,23.4H214.9z M239.8,5.5h10.8v43.8h5.3V5.5h10.8
			V0.7h-27V5.5z M275.1,49.2h5.3V0.7h-5.3V49.2z M306.2,0c-9.5,0-14.4,8.1-14.4,24.6c0,16.8,4.1,25.3,14.1,25.3
			c10.5,0,14.4-8.9,14.4-25.4C320.4,8.1,316.2,0,306.2,0z M306.1,45.3c-6,0-8.8-7-8.8-20.8c0-13.2,2.8-19.9,8.8-19.9
			c6,0,8.8,5.8,8.8,19.9C314.9,38.6,312.3,45.3,306.1,45.3z M353.9,19.3c0,7.9,0.1,15.2,0.4,21.7h-0.1c-0.6-2.1-2.5-6.7-15.9-40.3
			h-6.6v48.5h5V30.3c0-8.7,0-16.7-0.4-22.8h0.1c0.6,1.9,2.3,6.4,16.2,41.7h6.3V0.7h-5V19.3z M410.4,21.2h-15.8V0.7h-5.3v48.5h5.3
			V25.9h15.8v23.3h5.3V0.7h-5.3V21.2z M441.4,0C431.9,0,427,8.1,427,24.6c0,16.8,4.1,25.3,14.1,25.3c10.5,0,14.4-8.9,14.4-25.4
			C455.6,8.1,451.5,0,441.4,0z M441.3,45.3c-6,0-8.8-7-8.8-20.8c0-13.2,2.8-19.9,8.8-19.9c6,0,8.8,5.8,8.8,19.9
			C450.1,38.6,447.5,45.3,441.3,45.3z M487.9,34.7c0,6.2-1.6,10.6-8,10.6c-6.4,0-8-5.3-8-10.6V0.7h-5.4v34.4
			c0,8.9,3.3,14.9,13.2,14.9c10.3,0,13.5-6.3,13.5-15.2V0.7h-5.3V34.7z M517.9,21.3c-6.1-2.9-8.2-5.1-8.2-9.7c0-3.9,2-7.1,6.7-7.1
			c6,0,6.7,5.6,7,8h5.2C528.5,6.8,526,0,516.6,0c-7.9,0-12.2,5.3-12.2,12c0,7,3.4,10.4,11,14c6.6,3.2,8.7,5.9,8.7,11
			c0,5.6-2.6,8.4-7.6,8.4c-5.3,0-7.7-4-8.1-9H503c0.4,7.1,3.6,13.4,13.3,13.4c8.9,0,13.3-5.6,13.3-13.3
			C529.5,29.4,526.4,25.4,517.9,21.3z M545.5,44.5V25.9h16.2v-4.7h-16.2V5.5h17V0.7h-22.3v48.5h22.5l0.7-4.7H545.5z"/>
	</g>
</g>
</svg>
